<svg version="1.1" xmlns="http://www.w3.org/2000/svg" xmlns:xlink="http://www.w3.org/1999/xlink" viewBox="0 0 172 172"><g fill="none" fill-rule="nonzero" stroke="none" stroke-width="1" stroke-linecap="butt" stroke-linejoin="miter" stroke-miterlimit="10" stroke-dasharray="" stroke-dashoffset="0" font-family="none" font-weight="none" font-size="none" text-anchor="none" style="mix-blend-mode: normal"><path d="M0,172v-172h172v172z" fill="none"></path><g fill="#ffffff"><path d="M146.81119,25.18881c-16.24334,-16.24334 -37.84,-25.18881 -60.81119,-25.18881c-46.87294,0 -86,39.12706 -86,86c0,46.87294 39.12706,86 86,86c46.87294,0 86,-39.12706 86,-86c0,-22.97156 -8.94547,-44.56785 -25.18881,-60.81119zM124.2711,113.35609l-10.06053,-20.726l9.23655,-4.48339l4.95456,10.20754l0.23962,-0.99084c0.90263,-3.73071 1.36056,-7.55403 1.36056,-11.36339c0,-26.19362 -21.00458,-47.50397 -46.82259,-47.50397c-25.81801,0 -46.82259,21.31036 -46.82259,47.50397c0,26.0705 20.80538,47.30331 46.45654,47.5025v10.26708c-31.31025,-0.2014 -56.72325,-26.03889 -56.72325,-57.76958c0,-31.85491 25.61036,-57.77105 57.08967,-57.77105c31.47931,0 57.0893,25.91614 57.0893,57.77105c0,4.21179 -0.46087,8.44344 -1.36975,12.57768l-0.17972,0.8181l8.53385,-5.00638l5.19528,8.85543l-20.96158,12.29726c-3.13018,2.61602 -6.98915,-0.23227 -7.21591,-2.18602z"></path></g></g></svg>