<svg version="1.1" xmlns="http://www.w3.org/2000/svg" xmlns:xlink="http://www.w3.org/1999/xlink" viewBox="0 0 172 172"><g fill="none" fill-rule="nonzero" stroke="none" stroke-width="1" stroke-linecap="butt" stroke-linejoin="miter" stroke-miterlimit="10" stroke-dasharray="" stroke-dashoffset="0" font-family="none" font-weight="none" font-size="none" text-anchor="none" style="mix-blend-mode: normal"><path d="M0,172v-172h172v172z" fill="none"></path><g fill="#ffffff"><path d="M86,27.52c-32.29816,0 -58.48,26.18184 -58.48,58.48c0,32.29816 26.18184,58.48 58.48,58.48c32.29816,0 58.48,-26.18184 58.48,-58.48c0,-32.29816 -26.18184,-58.48 -58.48,-58.48zM86,30.96c30.39928,0 55.04,24.64072 55.04,55.04c0,30.39928 -24.64072,55.04 -55.04,55.04c-30.39928,0 -55.04,-24.64072 -55.04,-55.04c0,-30.39928 24.64072,-55.04 55.04,-55.04zM86.11422,58.4464c-8.69632,0 -15.96375,5.44396 -15.96375,13.96828c0,0.66736 0.32057,1.92156 1.69313,1.92156c1.37256,0 1.84094,-0.76804 1.84094,-1.5386c0,-5.57968 4.80003,-11.05234 12.27515,-11.05234c7.59208,0 12.12735,4.24173 12.12735,9.59437c0,11.50336 -14.96266,8.5047 -14.96266,23.75078c0,2.31168 0.5647,2.88235 1.84094,2.88235c1.3588,0 1.6864,-1.02383 1.6864,-2.63375c0,-12.87592 15.19781,-10.50388 15.19781,-24.30172c0,-5.63128 -4.83051,-12.59094 -15.73531,-12.59094zM84.8914,105.80015c-1.74752,0 -3.99094,1.33015 -3.99094,3.91703c0,2.79672 2.37414,3.99094 3.99094,3.99094c1.6168,0 3.99094,-1.1667 3.99094,-3.99094c0,-2.6144 -2.24342,-3.91703 -3.99094,-3.91703z"></path></g></g></svg>