<svg version="1.1" xmlns="http://www.w3.org/2000/svg" xmlns:xlink="http://www.w3.org/1999/xlink" viewBox="0 0 172 172"><g fill="none" fill-rule="nonzero" stroke="none" stroke-width="1" stroke-linecap="butt" stroke-linejoin="miter" stroke-miterlimit="10" stroke-dasharray="" stroke-dashoffset="0" font-family="none" font-weight="none" font-size="none" text-anchor="none" style="mix-blend-mode: normal"><path d="M0,172v-172h172v172z" fill="none"></path><g fill="#ffffff"><path d="M119.61241,21.76595c-1.46352,0.14647 -2.89063,0.87362 -3.89128,2.24425l-6.87739,9.42025c-10.5792,-4.6126 -22.67738,-6.10665 -34.97016,-3.46669c-28.09811,6.03433 -47.64919,32.66888 -44.97363,61.2806c3.11511,33.22706 33.46957,56.47472 65.94173,51.40311c27.48178,-4.29283 47.33654,-27.4443 48.44499,-54.21658c0.24606,-5.95072 -5.12428,-10.5827 -11.04395,-9.6582c-4.52217,0.70711 -7.85239,4.4661 -8.05783,9.00499c-0.80983,17.78289 -14.01949,33.13497 -32.28733,35.9873c-20.67822,3.22978 -40.07406,-10.76956 -43.57856,-31.3355c-3.42566,-20.10489 9.99937,-39.78511 29.98242,-43.8725c6.52284,-1.33319 12.9463,-0.89536 18.84049,0.9145l-5.86957,8.03917c-2.66839,3.655 -0.05472,8.79275 4.46984,8.79036l35.16612,-0.00933c3.74817,0 6.40958,-3.64899 5.26769,-7.21799l-10.71734,-33.4911c-0.86299,-2.69347 -3.40704,-4.06074 -5.84625,-3.81662z"></path></g></g></svg>